<svg xmlns="http://www.w3.org/2000/svg" viewBox="0 0 541.15 208.5">
<defs><style>.cls-1{fill:#2d2a26;}.cls-2{fill:#b19168;}</style></defs><g id="Layer_2" data-name="Layer 2"><g id="OBJECTS"><polygon class="cls-1" points="73.88 0 20.63 48.38 20.63 199.13 0 199.13 0 208.5 73.88 208.5 73.88 0"/><polygon class="cls-2" points="103.5 208.5 157.13 208.5 157.13 199.5 137.63 199.5 137.63 133.13 73.88 75 73.88 141.75 103.5 159.75 103.5 208.5"/><path class="cls-2" d="M314.74,59.12a2.64,2.64,0,0,0-.85,1.94V76.72q0,5.19-2.1,7.83t-8.07,2.64a20.13,20.13,0,0,1-5.09-.7,9.6,9.6,0,0,1-4.89-3.29V65.05h-5.08a2.72,2.72,0,0,0-2,.85,2.67,2.67,0,0,0-.84,1.94V80.91a5.6,5.6,0,0,1-.9,3.34,5.86,5.86,0,0,1-2.25,1.89,9,9,0,0,1-2.89.85,23.55,23.55,0,0,1-2.94.2,21.94,21.94,0,0,1-4.84-.45,16.76,16.76,0,0,1-3.34-1.1,7.85,7.85,0,0,1-2.29-1.54v-19h-5a2.68,2.68,0,0,0-1.94.85,2.64,2.64,0,0,0-.85,1.94V94.27A26.13,26.13,0,0,1,258,100a11.37,11.37,0,0,1-2.19,4.68,10.94,10.94,0,0,1-4.44,3.19,19,19,0,0,1-7.33,1.2,60.93,60.93,0,0,1-6.93-.4,15.79,15.79,0,0,1-6.48-2.19,13.1,13.1,0,0,1-4.79-5.44Q224,97.35,224,91a56.18,56.18,0,0,1,.74-9.08A62.74,62.74,0,0,1,226.23,75a3.72,3.72,0,0,0,.05-2.34,2.05,2.05,0,0,0-1.45-1.05q-.5-.19-5.08-1.59-.7,2.08-1.35,4.73t-1.14,5.49c-.34,1.89-.6,3.77-.8,5.63a48.14,48.14,0,0,0-.3,5.09q0,8.28,2.49,13.41a20.71,20.71,0,0,0,6.43,8,23.19,23.19,0,0,0,8.78,3.89,44.77,44.77,0,0,0,9.52,1A26.91,26.91,0,0,0,255,115.16a19.59,19.59,0,0,0,7.08-5.43,19.18,19.18,0,0,0,3.59-7.23,30.49,30.49,0,0,0,1-7.53V91.48a16,16,0,0,0,5.28,2.44,20.1,20.1,0,0,0,4.89.75h2.09a19.76,19.76,0,0,0,5.34-1,17.24,17.24,0,0,0,3.69-1.74,10.55,10.55,0,0,0,2.19-1.8c.5-.56.85-1,1-1.24a17.09,17.09,0,0,0,1.25,1.34,14.79,14.79,0,0,0,2.54,2,18.57,18.57,0,0,0,3.79,1.74,15.35,15.35,0,0,0,5,.75,26.07,26.07,0,0,0,8.92-1.3,12.64,12.64,0,0,0,5.54-3.69A13.72,13.72,0,0,0,321,84a32.11,32.11,0,0,0,.8-7.43V58.27h-5.09A2.64,2.64,0,0,0,314.74,59.12Z"/><path class="cls-2" d="M512.09,34.74a2.78,2.78,0,0,0-.75,2v41q0,4.59-2.64,7c-1.77,1.63-4.54,2.44-8.33,2.44H481.72l11.87-13.86a18.79,18.79,0,0,0-1.75-8.43,16.31,16.31,0,0,0-4.73-5.83,19.66,19.66,0,0,0-6.84-3.34,30.2,30.2,0,0,0-8-1,29.23,29.23,0,0,0-8.18,1.15,21.25,21.25,0,0,0-7,3.44,17.87,17.87,0,0,0-4.94,5.78,17.16,17.16,0,0,0-1.89,8.28l12,13.86H444.92a18.89,18.89,0,0,1-4.43-.45,24.54,24.54,0,0,1-3.14-.95,23.25,23.25,0,0,0,1.44-5.08,33.93,33.93,0,0,0,.45-5.59,24.78,24.78,0,0,0-.8-6.63,20.3,20.3,0,0,0-2-4.93,14.28,14.28,0,0,0-2.84-3.49,17.41,17.41,0,0,0-3.69-2.45,16.92,16.92,0,0,0-4.79-1.49,14,14,0,0,0-4-.25l-35.6,5.68V39.72h-5a2.68,2.68,0,0,0-1.94.85,2.64,2.64,0,0,0-.85,1.94V87.19H351.38q-5.69,0-8.32-2.39c-1.77-1.6-2.65-3.92-2.65-7V36.73a2.62,2.62,0,0,0-.84-2,2.75,2.75,0,0,0-1.95-.8h-5V74.73a37.38,37.38,0,0,0,.84,8.27,15.24,15.24,0,0,0,2.95,6.28,13.2,13.2,0,0,0,5.73,4A24.2,24.2,0,0,0,350,94.65v0h72a20.13,20.13,0,0,0,6.93-1,14.91,14.91,0,0,0,4.84-2.84,14.09,14.09,0,0,0,5.63,3,24.48,24.48,0,0,0,4.14.82v.08h23.33a4.8,4.8,0,0,0,3.39-1.1,4.68,4.68,0,0,0,1.5-2.59,4,4,0,0,0,1.54,2.59,6.26,6.26,0,0,0,4,1.1h23a26,26,0,0,0,9.22-1.4,13.3,13.3,0,0,0,5.74-4A15.35,15.35,0,0,0,518.27,83a37.86,37.86,0,0,0,.85-8.38V33.94h-5.19A2.38,2.38,0,0,0,512.09,34.74ZM430.56,81.61a10.6,10.6,0,0,1-6.83,5.13,14.86,14.86,0,0,1-3.24.45h-35V68.94l35.3-6a14.24,14.24,0,0,1,3.19.45,9.51,9.51,0,0,1,3.64,1.79,10.78,10.78,0,0,1,3,3.89,15.42,15.42,0,0,1,1.25,6.73A11.26,11.26,0,0,1,430.56,81.61Zm42.58,5a5.38,5.38,0,0,0-1.29,2.6,4.89,4.89,0,0,0-1.1-2.6l-13-14.86a6.94,6.94,0,0,1,1-3.29,13,13,0,0,1,2.85-3.39,16.32,16.32,0,0,1,4.53-2.69,16.08,16.08,0,0,1,6.09-1.1,16.26,16.26,0,0,1,5.93,1,13.68,13.68,0,0,1,4.29,2.59,11.66,11.66,0,0,1,2.64,3.44,7.91,7.91,0,0,1,.9,3.44Z"/><path class="cls-2" d="M536.07,33.94a2.75,2.75,0,0,0-2,.8,2.62,2.62,0,0,0-.84,2V94.67h5.08a2.68,2.68,0,0,0,2-.8,2.77,2.77,0,0,0,.74-2V33.94Z"/><path class="cls-2" d="M271.9,204.91a2,2,0,0,1,0,1.5c-.19.46-.76.69-1.69.69h-6.08L258,190.15H230.22l-6.08,16.95h-6.39c-.93,0-1.44-.23-1.54-.69a2.64,2.64,0,0,1,.15-1.5l22.93-60.83a14.86,14.86,0,0,1,1-2.39,4.34,4.34,0,0,1,1.5-1.55,4.12,4.12,0,0,1,2.29-.65,3.92,3.92,0,0,1,2.25.65,5.68,5.68,0,0,1,1.54,1.55,10.16,10.16,0,0,1,1.1,2.39Zm-16.65-22.34-11.17-31.91-11.17,31.91Z"/><path class="cls-2" d="M298,207a14.28,14.28,0,0,1-3,.6,31.85,31.85,0,0,1-3.69.2,12.72,12.72,0,0,1-5.19-.9,7,7,0,0,1-3.09-2.54,10.84,10.84,0,0,1-1.54-4,27.21,27.21,0,0,1-.45-5.13V140.89h5.18a2.25,2.25,0,0,1,2,.89,4.07,4.07,0,0,1,.6,2.3v52.45a4.59,4.59,0,0,0,1,3.34q1.05,1,3.84,1a14.45,14.45,0,0,0,2.85-.2,12.38,12.38,0,0,0,1.54-.4l1,4.49A1.62,1.62,0,0,1,298,207Z"/><path class="cls-2" d="M387.48,204.91a2,2,0,0,1,0,1.5c-.2.46-.76.69-1.69.69H379.7l-6.08-16.95H345.8l-6.08,16.95h-6.39c-.93,0-1.44-.23-1.54-.69a2.64,2.64,0,0,1,.15-1.5l22.93-60.83a14.86,14.86,0,0,1,1-2.39,4.34,4.34,0,0,1,1.5-1.55,4.1,4.1,0,0,1,2.29-.65,3.89,3.89,0,0,1,2.24.65,5.71,5.71,0,0,1,1.55,1.55,10.16,10.16,0,0,1,1.1,2.39Zm-16.65-22.34-11.17-31.91-11.17,31.91Z"/><path class="cls-2" d="M401.65,171.2v23.34q.09,3.59,1.79,4.89t6.18,1.29a21.4,21.4,0,0,0,3.29-.3l2.5-.4a1.28,1.28,0,0,1,1.19.15,1.93,1.93,0,0,1,.4,1.45v4.59a8.91,8.91,0,0,1-3.14,1,30.37,30.37,0,0,1-6.33.55,17.61,17.61,0,0,1-4.69-.65A11.77,11.77,0,0,1,394,195.24V151.16l5.88-1.5a1.39,1.39,0,0,1,.85-.1,1.35,1.35,0,0,1,.65.5,2.5,2.5,0,0,1,.3,1.4v12.16h13.46v5.19a2.72,2.72,0,0,1-.5,1.84,1.91,1.91,0,0,1-1.5.55Z"/><path class="cls-2" d="M435.45,171.2v23.34c.07,2.39.66,4,1.8,4.89s3.19,1.29,6.18,1.29a21.51,21.51,0,0,0,3.29-.3l2.49-.4a1.31,1.31,0,0,1,1.2.15,2,2,0,0,1,.4,1.45v4.59a9,9,0,0,1-3.14,1,30.47,30.47,0,0,1-6.34.55,17.48,17.48,0,0,1-4.68-.65,12.24,12.24,0,0,1-4.34-2.14,12,12,0,0,1-3.24-3.89,12.17,12.17,0,0,1-1.3-5.88V151.16l5.88-1.5a1.4,1.4,0,0,1,.85-.1,1.31,1.31,0,0,1,.65.5,2.42,2.42,0,0,1,.3,1.4v12.16h13.46v5.19a2.67,2.67,0,0,1-.5,1.84,1.9,1.9,0,0,1-1.49.55Z"/><path class="cls-2" d="M476.54,162.83a35.28,35.28,0,0,1,7.13.69,17.31,17.31,0,0,1,5.88,2.35,11.94,11.94,0,0,1,4,4.44,14.6,14.6,0,0,1,1.49,7v26.62a24.77,24.77,0,0,1-4.68,2.25,41.57,41.57,0,0,1-6,1.64,39.72,39.72,0,0,1-7.92.7,30.42,30.42,0,0,1-7.23-.75,18.21,18.21,0,0,1-5.59-2.39,12.64,12.64,0,0,1-4.14-4.49,13.56,13.56,0,0,1-1.59-6.73,9.79,9.79,0,0,1,4.14-8.33q4.13-3,11.06-3.89c4.63-.56,7.93-.94,9.93-1.14s3.52-.37,4.58-.5v-4a4.81,4.81,0,0,0-.54-2.1,5.56,5.56,0,0,0-1.85-2,10.72,10.72,0,0,0-3.44-1.45,21.78,21.78,0,0,0-5.23-.54,38.06,38.06,0,0,0-7.23.64c-2.23.44-4.08.85-5.54,1.25s-2.19,0-2.19-1.3v-5.58a42.47,42.47,0,0,1,4.14-1.2c1.42-.33,3-.61,4.73-.85A46.94,46.94,0,0,1,476.54,162.83Zm11,25c-1,.06-2.05.15-3.15.25s-2.31.21-3.64.35L475,189a24.14,24.14,0,0,0-6.68,1.55,4.17,4.17,0,0,0-3,4.09,5.36,5.36,0,0,0,2.94,4.69,15.44,15.44,0,0,0,8,1.79,42,42,0,0,0,6.88-.45,17.35,17.35,0,0,0,4.29-1.24Z"/><path class="cls-2" d="M538.36,169.71a2.93,2.93,0,0,1-.8,1.49c-.39.4-1,.44-1.89.1a24.89,24.89,0,0,0-4.34-.94,48.09,48.09,0,0,0-7.13-.45,24.43,24.43,0,0,0-5.63.5,7.38,7.38,0,0,0-3,1.34,3.29,3.29,0,0,0-1.2,1.9,10.29,10.29,0,0,0-.2,2,3.63,3.63,0,0,0,2.49,3.79,31,31,0,0,0,7.53,1.3,45.64,45.64,0,0,1,8.33,1.29,14,14,0,0,1,5.28,2.55,8.12,8.12,0,0,1,2.7,4.38,21.87,21.87,0,0,1,.69,5.34,13,13,0,0,1-1,5,11.15,11.15,0,0,1-3.29,4.28,17.27,17.27,0,0,1-6,3,31.54,31.54,0,0,1-9.27,1.15,50.44,50.44,0,0,1-5.78-.3,43.31,43.31,0,0,1-4.74-.79,36.24,36.24,0,0,1-4-1.2v-5a2.15,2.15,0,0,1,.2-1,1.31,1.31,0,0,1,.55-.59,1.54,1.54,0,0,1,1.14,0q2,.49,5.19,1a45.69,45.69,0,0,0,7.68.55,31.49,31.49,0,0,0,5.88-.45,11,11,0,0,0,3.59-1.24,4.45,4.45,0,0,0,1.8-1.9,6,6,0,0,0,.5-2.49,11.65,11.65,0,0,0-.25-2.49,3.31,3.31,0,0,0-1.3-1.9,9.13,9.13,0,0,0-3-1.35,40.34,40.34,0,0,0-6.33-.94,38.42,38.42,0,0,1-7.63-1.4,16.19,16.19,0,0,1-5.24-2.49,7.56,7.56,0,0,1-2.64-3.49,10.9,10.9,0,0,1-.6-4.19,12.91,12.91,0,0,1,.9-4.64,10.9,10.9,0,0,1,3-4.24,15.4,15.4,0,0,1,5.63-3,29,29,0,0,1,8.58-1.09,46.18,46.18,0,0,1,5.93.34,47.23,47.23,0,0,1,4.69.85c1.36.34,2.61.7,3.74,1.1Z"/></g></g></svg>