<svg xmlns="http://www.w3.org/2000/svg" viewBox="0 0 134.898 179.001" width="134.898" height="179.001"><defs><style>.cls-1{fill:#2d2a26;}.cls-2{fill:#b19168;}</style></defs><g id="Layer_2" data-name="Layer 2"><g id="Layer_1-2" data-name="Layer 1"><g id="OBJECTS"><path class="cls-1" points="73.88 0 20.63 48.38 20.63 199.13 0 199.13 0 208.5 73.88 208.5 73.88 0" d="M63.427 0L17.711 41.536L17.711 170.955L0 170.955L0 179.001L63.427 179.001L63.427 0Z"/><path class="cls-2" points="103.5 208.5 157.13 208.5 157.13 199.5 137.63 199.5 137.63 133.13 73.88 75 73.88 141.75 103.5 159.75 103.5 208.5" d="M88.856 179.001L134.898 179.001L134.898 171.273L118.157 171.273L118.157 114.294L63.427 64.389L63.427 121.695L88.856 137.148L88.856 179.001Z"/></g></g></g></svg>